<svg xmlns="http://www.w3.org/2000/svg" xmlns:xlink="http://www.w3.org/1999/xlink" version="1.1" width="256" height="256" viewBox="0 0 256 256" xml:space="preserve">
<g style="stroke: none; stroke-width: 0; stroke-dasharray: none; stroke-linecap: butt; stroke-linejoin: miter; stroke-miterlimit: 10; fill: none; fill-rule: nonzero; opacity: 1;" transform="translate(1.4065934065934016 1.4065934065934016) scale(2.81 2.81)">
	<circle cx="45" cy="45" r="45" style="stroke: none; stroke-width: 1; stroke-dasharray: none; stroke-linecap: butt; stroke-linejoin: miter; stroke-miterlimit: 10; fill: rgb(255,200,57); fill-rule: nonzero; opacity: 1;" transform="  matrix(1 0 0 1 0 0) "/>
	<path d="M 61.462 57.698 V 30.2 v -1.656 c 0 -9.093 -7.371 -16.464 -16.463 -16.464 c -9.092 0 -16.463 7.371 -16.463 16.463 v 1.656 v 27.499 H 61.462 z" style="stroke: none; stroke-width: 1; stroke-dasharray: none; stroke-linecap: butt; stroke-linejoin: miter; stroke-miterlimit: 10; fill: rgb(69,48,76); fill-rule: nonzero; opacity: 1;" transform=" matrix(1 0 0 1 0 0) " stroke-linecap="round"/>
	<path d="M 63.056 56.694 l -6.46 -1.18 c -2.501 -0.457 -4.318 -2.636 -4.318 -5.178 l -0.013 -1.31 l -14.542 -0.063 v 1.373 c 0 2.542 -1.817 4.721 -4.317 5.178 l -6.461 1.181 c -3.403 0.622 -5.876 3.587 -5.876 7.047 v 19.362 C 28.002 87.466 36.203 90 45 90 s 16.998 -2.534 23.931 -6.898 V 63.741 C 68.931 60.281 66.459 57.316 63.056 56.694 z" style="stroke: none; stroke-width: 1; stroke-dasharray: none; stroke-linecap: butt; stroke-linejoin: miter; stroke-miterlimit: 10; fill: rgb(84,139,237); fill-rule: nonzero; opacity: 1;" transform=" matrix(1 0 0 1 0 0) " stroke-linecap="round"/>
	<path d="M 52.265 49.026 l 0.013 1.31 c 0 2.542 1.816 4.721 4.318 5.178 C 54.193 62.563 50.245 67.92 45 71.856 c -5.244 -3.936 -9.193 -9.293 -11.595 -16.343 c 2.5 -0.457 4.318 -2.636 4.318 -5.178 v -1.373 L 52.265 49.026 z" style="stroke: none; stroke-width: 1; stroke-dasharray: none; stroke-linecap: butt; stroke-linejoin: miter; stroke-miterlimit: 10; fill: rgb(255,199,171); fill-rule: nonzero; opacity: 1;" transform=" matrix(1 0 0 1 0 0) " stroke-linecap="round"/>
	<path d="M 57.355 28.567 v 8.525 c 0 7.23 -5.531 15.114 -12.356 15.114 l 0 0 c -6.823 0 -12.356 -7.883 -12.356 -15.114 v -8.525 c 7.112 -0.024 11.935 -0.979 16.21 -3.051 C 51.271 27.487 53.625 28.543 57.355 28.567 z" style="stroke: none; stroke-width: 1; stroke-dasharray: none; stroke-linecap: butt; stroke-linejoin: miter; stroke-miterlimit: 10; fill: rgb(255,199,171); fill-rule: nonzero; opacity: 1;" transform=" matrix(1 0 0 1 0 0) " stroke-linecap="round"/>
	<path d="M 45 55.362 c 2.836 0 5.441 -1.373 7.527 -3.484 c -0.151 -0.491 -0.248 -1.005 -0.248 -1.542 l -0.013 -1.31 l -0.048 0 c -2.032 1.936 -4.519 3.179 -7.217 3.179 c -2.724 0 -5.234 -1.269 -7.276 -3.238 v 1.369 c 0 0.537 -0.097 1.052 -0.249 1.543 C 39.56 53.989 42.164 55.362 45 55.362 z" style="stroke: none; stroke-width: 1; stroke-dasharray: none; stroke-linecap: butt; stroke-linejoin: miter; stroke-miterlimit: 10; fill: rgb(244,181,149); fill-rule: nonzero; opacity: 1;" transform=" matrix(1 0 0 1 0 0) " stroke-linecap="round"/>
	<path d="M 59.38 76.084 v 11.555 c 3.382 -1.14 6.583 -2.668 9.552 -4.537 V 64.614 l -7.424 6.69 C 60.153 72.524 59.38 74.261 59.38 76.084 z" style="stroke: none; stroke-width: 1; stroke-dasharray: none; stroke-linecap: butt; stroke-linejoin: miter; stroke-miterlimit: 10; fill: rgb(255,199,171); fill-rule: nonzero; opacity: 1;" transform=" matrix(1 0 0 1 0 0) " stroke-linecap="round"/>
	<path d="M 21.069 64.614 v 18.488 c 2.968 1.868 6.17 3.397 9.552 4.537 V 76.084 c 0 -1.823 -0.773 -3.56 -2.127 -4.78 L 21.069 64.614 z" style="stroke: none; stroke-width: 1; stroke-dasharray: none; stroke-linecap: butt; stroke-linejoin: miter; stroke-miterlimit: 10; fill: rgb(255,199,171); fill-rule: nonzero; opacity: 1;" transform=" matrix(1 0 0 1 0 0) " stroke-linecap="round"/>
</g>
</svg>